<svg width="1920" height="1080" viewBox="0 0 1920 1080" fill="none" xmlns="http://www.w3.org/2000/svg">
<rect width="1920" height="1080" fill="#1B203D"/>
<path d="M0 0H104C120.569 0 134 13.4315 134 30V1040C134 1062.09 116.091 1080 94 1080H0V0Z" fill="#121832"/>
<path d="M1088.5 713C1088.5 691.185 1106.18 673.5 1128 673.5H1859C1880.82 673.5 1898.5 691.185 1898.5 713V1015C1898.5 1036.82 1880.82 1054.5 1859 1054.5H1128C1106.18 1054.5 1088.5 1036.82 1088.5 1015V713Z" fill="#282D4D" stroke="black"/>
<rect x="174.5" y="673.5" width="885" height="381" rx="39.5" fill="#282D4D" stroke="black"/>
<path d="M1088.5 313C1088.5 291.185 1106.18 273.5 1128 273.5H1849C1870.82 273.5 1888.5 291.185 1888.5 313V603C1888.5 624.815 1870.82 642.5 1849 642.5H1128C1106.18 642.5 1088.5 624.815 1088.5 603V313Z" fill="#282D4D" stroke="black"/>
<rect x="164.5" y="273.5" width="895" height="369" rx="39.5" fill="#282D4D" stroke="black"/>
<path d="M204 16.5H1385C1406.82 16.5 1424.5 34.1847 1424.5 56V203C1424.5 224.815 1406.82 242.5 1385 242.5H204C182.185 242.5 164.5 224.815 164.5 203V56C164.5 34.1848 182.185 16.5 204 16.5Z" fill="#282D4D" stroke="black"/>
<path d="M1457.5 56C1457.5 34.1848 1475.18 16.5 1497 16.5H1849C1870.82 16.5 1888.5 34.1847 1888.5 56V203C1888.5 224.815 1870.82 242.5 1849 242.5H1497C1475.18 242.5 1457.5 224.815 1457.5 203V56Z" fill="#282D4D" stroke="black"/>
</svg>
