<svg width="1920" height="1080" viewBox="0 0 1920 1080" fill="none" xmlns="http://www.w3.org/2000/svg">
<rect width="1920" height="1080" fill="#1B203D"/>
<path d="M0 0H104C120.569 0 134 13.4315 134 30V1040C134 1062.09 116.091 1080 94 1080H0V0Z" fill="#121832"/>
<path d="M1099 313C1099 290.909 1116.91 273 1139 273H1849C1871.09 273 1889 290.909 1889 313V579C1889 601.091 1871.09 619 1849 619H1139C1116.91 619 1099 601.091 1099 579V313Z" fill="#282D4D"/>
<rect x="164" y="273" width="886" height="346" rx="40" fill="#282D4D"/>
<rect x="164" y="654" width="1725" height="392" rx="40" fill="#282D4D"/>
<path d="M164 56C164 33.9086 181.909 16 204 16H698C720.091 16 738 33.9086 738 56V203C738 225.091 720.091 243 698 243H204C181.909 243 164 225.091 164 203V56Z" fill="#282D4D"/>
<path d="M768 56C768 33.9086 785.909 16 808 16H1849C1871.09 16 1889 33.9086 1889 56V203C1889 225.091 1871.09 243 1849 243H808C785.909 243 768 225.091 768 203V56Z" fill="#282D4D"/>
</svg>
