<svg width="1920" height="1080" viewBox="0 0 1920 1080" fill="none" xmlns="http://www.w3.org/2000/svg">
<rect width="1920" height="1080" fill="#1B203D"/>
<path d="M0 0H104C120.569 0 134 13.4315 134 30V1040C134 1062.09 116.091 1080 94 1080H0V0Z" fill="#121832"/>
<path d="M204 16.5H1847C1868.82 16.5 1886.5 34.1847 1886.5 56V203C1886.5 224.815 1868.82 242.5 1847 242.5H204C182.185 242.5 164.5 224.815 164.5 203V56C164.5 34.1848 182.185 16.5 204 16.5Z" fill="#282D4D" stroke="black"/>
<path d="M204 277.5H1847C1868.82 277.5 1886.5 295.185 1886.5 317V993C1886.5 1014.82 1868.82 1032.5 1847 1032.5H204C182.185 1032.5 164.5 1014.82 164.5 993V317C164.5 295.185 182.185 277.5 204 277.5Z" fill="#282D4D" stroke="black"/>
</svg>
