<svg width="1920" height="1080" viewBox="0 0 1920 1080" fill="none" xmlns="http://www.w3.org/2000/svg">
<rect width="1920" height="1080" fill="#111315"/>
<path d="M0 0H67C83.5685 0 97 13.4315 97 30V1050C97 1066.57 83.5685 1080 67 1080H0V0Z" fill="#1A1C1E"/>
<path d="M125 60C125 43.4315 138.431 30 155 30H948C964.569 30 978 43.4315 978 60V258C978 274.569 964.569 288 948 288H155C138.431 288 125 274.569 125 258V60Z" fill="#1A1C1E"/>
<path d="M999 60C999 43.4315 1012.43 30 1029 30H1848C1864.57 30 1878 43.4315 1878 60V94C1878 110.569 1864.57 124 1848 124H1029C1012.43 124 999 110.569 999 94V60Z" fill="#1A1C1E"/>
<rect x="125" y="320" width="1095" height="349" rx="30" fill="#1A1C1E"/>
<rect x="1251" y="320" width="627" height="734" rx="30" fill="#1A1C1E"/>
<rect x="125" y="705" width="1095" height="349" rx="30" fill="#1A1C1E"/>
<rect x="1597" y="151" width="283" height="137" rx="30" fill="#F44691"/>
<rect x="1299" y="151" width="281" height="137" rx="30" fill="#A62BFF"/>
<rect x="999" y="151" width="283" height="137" rx="30" fill="#2A84FE"/>
</svg>
